<svg width="39" height="41" viewBox="0 0 39 41" fill="none" xmlns="http://www.w3.org/2000/svg">
<path d="M15.8921 40.1516C15.5546 40.1516 15.2171 40.1403 14.8796 40.1201C6.46456 39.5801 0.0678037 32.4701 0.619054 24.2756C0.799054 21.6656 1.68105 19.1366 3.18405 16.9631C3.82305 16.0361 7.27905 18.3018 6.63555 19.2311C5.54655 20.8061 4.90305 22.6443 4.7748 24.5411C4.3698 30.5036 9.02731 35.6786 15.1518 36.0723C19.6113 36.3603 23.8098 34.0248 25.8236 30.1143C26.3411 29.1131 30.0603 30.9333 29.5451 31.9368C26.9306 37.0061 21.6476 40.1538 15.8876 40.1538L15.8921 40.1516ZM14.8683 31.6016C14.1888 31.6016 13.5228 31.2798 13.1223 30.6836L9.3288 25.0226C9.05881 24.6176 8.9463 24.1383 9.00931 23.6658L9.84181 16.9721C9.98581 15.8606 11.0231 15.0708 12.1661 15.2081C13.3068 15.3431 14.1168 16.3556 13.9751 17.4693L13.2371 23.4251L16.6121 28.4651C17.2421 29.4033 16.9676 30.6611 16.0046 31.2731C15.6536 31.4981 15.2621 31.6016 14.8683 31.6016ZM12.7241 13.6601C12.5711 13.6601 12.4181 13.6533 12.2628 13.6443C10.4133 13.5251 8.72355 12.7151 7.49955 11.3538C6.2778 9.99707 5.6703 8.25782 5.79405 6.45557C6.04155 2.76557 9.3603 -0.0626833 13.1741 0.155567C15.0236 0.268067 16.7133 1.08257 17.9373 2.44157C19.1568 3.79832 19.7643 5.53982 19.6406 7.34207C19.4021 10.8836 16.3646 13.6601 12.7241 13.6601ZM36.2928 33.6513C36.2478 33.6513 36.2028 33.6513 36.1578 33.6468L33.3836 33.4668C32.4386 33.4083 31.6556 32.7356 31.4756 31.8288L30.3663 26.2263C30.3101 25.9383 30.1188 25.7763 30.0131 25.7088C29.9073 25.6368 29.6801 25.5288 29.3876 25.5828L20.4258 27.3086C19.3121 27.5291 18.2028 26.8136 17.9801 25.7111C17.7551 24.6131 18.4908 23.5466 19.6181 23.3261L28.5798 21.6003C29.8916 21.3528 31.2281 21.6093 32.3373 22.3383C33.4466 23.0651 34.2003 24.1743 34.4523 25.4546L35.2578 29.5226L36.4233 29.5968C37.5708 29.6711 38.4416 30.6363 38.3673 31.7568C38.2931 32.8278 37.3773 33.6513 36.2906 33.6513H36.2928Z" fill="#7C7C7C"/>
</svg>
