<svg width="37" height="16" viewBox="0 0 37 16" fill="none" xmlns="http://www.w3.org/2000/svg">
<path d="M29.2246 3.50166H32.0411C32.4173 3.50166 32.7237 3.79916 32.7237 4.16841V7.15391H35.7176C36.0938 7.15391 36.4002 7.45316 36.4002 7.82066V10.5699C36.4002 10.9374 36.0938 11.2367 35.7176 11.2367H32.7237V13.9457C32.7237 14.0331 32.706 14.1198 32.6717 14.2005C32.6374 14.2813 32.5871 14.3547 32.5237 14.4165C32.4603 14.4783 32.385 14.5272 32.3022 14.5605C32.2194 14.5939 32.1307 14.6109 32.0411 14.6107H29.2246C29.044 14.6107 28.8708 14.5406 28.7432 14.4159C28.6155 14.2912 28.5438 14.122 28.5438 13.9457V11.2367H25.7076C25.6178 11.2369 25.529 11.2198 25.446 11.1864C25.3631 11.1529 25.2878 11.1038 25.2243 11.0419C25.1609 10.9799 25.1106 10.9063 25.0764 10.8253C25.0422 10.7443 25.0247 10.6575 25.0249 10.5699V7.82066C25.0249 7.45316 25.3295 7.15391 25.7076 7.15391H28.5438V4.16841C28.5435 4.08093 28.561 3.99427 28.5951 3.91338C28.6292 3.8325 28.6793 3.75899 28.7425 3.69705C28.8058 3.63511 28.8809 3.58597 28.9636 3.55244C29.0464 3.51891 29.135 3.50166 29.2246 3.50166ZM5.7233 0.502157H8.75838V15.2879H5.28255V4.56041L2.56638 7.06291L0.583008 5.17991L5.7233 0.502157ZM19.7968 4.67066C19.7968 3.60666 18.6466 2.98541 17.0556 2.98541C15.4395 2.98541 14.2893 3.60666 14.2893 4.67066C14.2893 5.77841 16.0523 6.28766 17.0556 6.42066C18.0589 6.28766 19.7968 5.77841 19.7968 4.67066ZM20.0907 11.0529C20.0907 9.81216 18.0589 9.21541 17.0556 9.08066C16.0272 9.21366 14.0205 9.81216 14.0205 11.0529C14.0205 12.1397 15.3428 12.8484 17.0556 12.8484C18.7201 12.8484 20.0907 12.1397 20.0907 11.0529ZM10.4963 11.4519C10.4963 9.65641 12.0371 8.28441 13.9954 7.66316C12.1858 7.08566 10.765 6.02166 10.765 4.18241C10.765 1.41216 14.0205 0.279907 17.0556 0.279907C20.0656 0.279907 23.3443 1.41216 23.3443 4.18241C23.3443 6.02166 21.9021 7.08741 20.0907 7.66316C22.049 8.28266 23.6149 9.65816 23.6149 11.4519C23.6149 14.2012 20.483 15.5539 17.0574 15.5539C13.6281 15.5539 10.4963 14.2239 10.4963 11.4519Z" fill="#7C7C7C"/>
</svg>
