<svg width="36" height="28" viewBox="0 0 36 28" fill="none" xmlns="http://www.w3.org/2000/svg">
<path d="M33.477 12.0995C32.3832 12.0995 31.4942 11.1772 31.4942 10.038V4.41699H4.4655V10.038C4.4655 11.1755 3.57825 12.0995 2.48275 12.0995C1.38725 12.0995 0.5 11.1772 0.5 10.038V2.35549C0.5 1.21624 1.38725 0.292236 2.48275 0.292236H33.477C34.5725 0.292236 35.4597 1.21624 35.4597 2.35374V10.0362C35.4597 11.1772 34.5725 12.0995 33.477 12.0995V12.0995ZM27.0072 28H8.99275C7.94975 28 7.10275 27.118 7.10275 26.033V7.03149H10.8827V24.066H25.1172V6.99999H28.8972V26.033C28.8972 27.118 28.0502 28 27.0072 28V28ZM23.4897 6.99999C23.4897 10.0922 21.0782 12.6 18.1032 12.6C15.1282 12.6 12.7167 10.0922 12.7167 6.99999H23.4897V6.99999Z" fill="#7C7C7C"/>
</svg>
