<svg width="21" height="22" viewBox="0 0 21 22" fill="none" xmlns="http://www.w3.org/2000/svg">
<path d="M4.92676 8.85496C5.05176 9.15829 7.08301 14.2066 12.6663 16.6875L14.4372 14.8241C14.7497 14.4991 15.2184 14.3908 15.6247 14.5425C16.9268 14.9758 18.333 15.225 19.7601 15.225C20.3955 15.225 20.9163 15.7666 20.9163 16.4275V20.6308C20.9163 21.2916 20.3955 21.8333 19.7601 21.8333C14.5414 21.8333 9.53646 19.6773 5.84629 15.8395C2.15612 12.0017 0.0830078 6.79656 0.0830078 1.36913C0.0830078 0.708292 0.603841 0.166626 1.23926 0.166626H5.29134C5.92676 0.166626 6.44759 0.708292 6.44759 1.36913C6.44759 2.87496 6.67676 4.31579 7.10384 5.66996C7.23926 6.09246 7.14551 6.55829 6.82259 6.89413L4.92676 8.85496Z" fill="#999999"/>
</svg>
