<svg width="19" height="19" viewBox="0 0 19 19" fill="none" xmlns="http://www.w3.org/2000/svg">
<path d="M7.78832 11.4593V18.3324H5.04107V11.4593H7.78741H7.78832ZM13.985 10.0843H10.7748C10.5925 10.0843 10.4176 10.1567 10.2887 10.2856C10.1598 10.4145 10.0873 10.5894 10.0873 10.7718V13.9819C10.0873 14.3614 10.3953 14.6694 10.7748 14.6694H13.985C14.1673 14.6694 14.3422 14.597 14.4711 14.4681C14.6001 14.3391 14.6725 14.1643 14.6725 13.9819V10.7718C14.6725 10.5894 14.6001 10.4145 14.4711 10.2856C14.3422 10.1567 14.1673 10.0843 13.985 10.0843V10.0843ZM13.2966 11.4593V13.2944H11.4623V11.4593H13.2957H13.2966ZM5.6534 4.58517H1.37624V5.65308C1.37624 6.73475 2.18107 7.63033 3.22424 7.7715L3.36815 7.78617L3.51482 7.79075C4.64599 7.79075 5.57274 6.91167 5.6479 5.79883L5.65249 5.65217V4.58608L5.6534 4.58517ZM11.3047 4.58517H7.02841V5.65308C7.02841 6.73475 7.83324 7.63033 8.8764 7.7715L9.02032 7.78617L9.16699 7.79075C10.2982 7.79075 11.2249 6.91167 11.3001 5.79883L11.3047 5.65217V4.58608V4.58517ZM16.9577 4.58517H12.6815V5.65308C12.6815 6.73475 13.4863 7.63033 14.5304 7.7715L14.6734 7.78617L14.8201 7.79075C15.9522 7.79075 16.878 6.91167 16.9532 5.79883L16.9587 5.65217L16.9577 4.58517V4.58517ZM6.47291 1.375H3.96674L2.26449 3.21017H5.91007L6.47291 1.375ZM10.421 1.375H7.91207L7.3474 3.21017H10.9866L10.4228 1.375H10.421ZM14.3672 1.375H11.8611L12.4239 3.21017H16.0695L14.3682 1.375H14.3672ZM0.184571 3.43017L3.16374 0.22C3.27135 0.10385 3.41576 0.0284065 3.57257 0.00641664L3.6679 0H14.6679C14.8263 5.85709e-05 14.9797 0.0547794 15.1024 0.154917L15.1721 0.219083L18.1714 3.45492L18.1989 3.48975C18.2924 3.61442 18.3346 3.75558 18.3346 3.89308V5.654C18.3346 6.56517 17.9872 7.39567 17.4179 8.019V17.6458C17.4179 17.8121 17.3576 17.9727 17.2482 18.098C17.1388 18.2232 16.9877 18.3045 16.823 18.3269L16.7304 18.3333L9.16424 18.3324V10.7718C9.16424 10.5894 9.09181 10.4145 8.96287 10.2856C8.83394 10.1567 8.65907 10.0843 8.47674 10.0843H4.3554C4.17307 10.0843 3.9982 10.1567 3.86927 10.2856C3.74034 10.4145 3.6679 10.5894 3.6679 10.7718V18.3324L1.6054 18.3333C1.43927 18.3333 1.27876 18.2732 1.15355 18.164C1.02835 18.0548 0.946916 17.9039 0.924321 17.7393L0.917905 17.6458V8.019C0.369189 7.41866 0.0466899 6.64596 0.0058214 5.83367L0.00123796 5.65308V3.9325C-0.00672708 3.8019 0.0238748 3.67184 0.0892379 3.5585L0.135071 3.48883L0.184571 3.42925V3.43017Z" fill="white"/>
</svg>
