<svg width="22" height="20" viewBox="0 0 22 20" fill="none" xmlns="http://www.w3.org/2000/svg">
<path d="M21.7705 2.81318L19.3569 0.399019C19.2721 0.314382 19.1572 0.266846 19.0374 0.266846C18.9176 0.266846 18.8027 0.314382 18.7179 0.399019L9.9962 9.12074L8.2966 7.4217C8.21185 7.33699 8.09694 7.28941 7.97712 7.28941C7.8573 7.28941 7.74238 7.33699 7.65764 7.4217L5.24348 9.83586C5.20144 9.87777 5.16808 9.92756 5.14532 9.98238C5.12256 10.0372 5.11084 10.096 5.11084 10.1553C5.11084 10.2147 5.12256 10.2735 5.14532 10.3283C5.16808 10.3831 5.20144 10.4329 5.24348 10.4748L9.66244 14.8927C9.747 14.9772 9.8618 15.0251 9.98192 15.0251C9.98724 15.0251 9.99228 15.0223 9.9976 15.0223C10.0021 15.0223 10.0068 15.0248 10.0116 15.0248C10.0709 15.0249 10.1297 15.0132 10.1845 14.9905C10.2394 14.9677 10.2892 14.9344 10.3311 14.8924L21.7705 3.45242C21.9469 3.27546 21.9469 2.98958 21.7705 2.81318V2.81318Z" fill="#2C7D51"/>
<path d="M15.1662 11.0149V16.9394H2.83388V4.60713H11.5307L14.3248 1.81329H1.49408V1.81525C1.48764 1.81525 1.48176 1.81329 1.47504 1.81329C1.10087 1.81356 0.741647 1.96016 0.474131 2.22176C0.206615 2.48337 0.0520255 2.83922 0.0433988 3.21329H0.0400391V18.3333H0.0436792C0.0524937 18.7009 0.202439 19.0509 0.462421 19.3109C0.722403 19.5709 1.07247 19.7208 1.44004 19.7296V19.7333H16.56V19.7296C16.9276 19.7209 17.2777 19.571 17.5377 19.311C17.7977 19.051 17.9477 18.7009 17.9564 18.3333H17.96V8.22109L15.1662 11.0149Z" fill="#097D28"/>
</svg>
