<svg width="25" height="25" viewBox="0 0 21 22" fill="none" xmlns="http://www.w3.org/2000/svg">
<path d="M10.2965 13.1872H6.27051C6.10081 13.1944 5.93148 13.1658 5.77266 13.1032C5.61385 13.0407 5.46883 12.9453 5.34633 12.823C5.22382 12.7007 5.12635 12.5539 5.05976 12.3914C4.99318 12.2289 4.95886 12.0541 4.95886 11.8775C4.95886 11.7008 4.99318 11.526 5.05976 11.3635C5.12635 11.2011 5.22382 11.0542 5.34633 10.9319C5.46883 10.8096 5.61385 10.7143 5.77266 10.6517C5.93148 10.5891 6.10081 10.5605 6.27051 10.5677H9.03822V5.85413C9.04764 5.51314 9.18452 5.1894 9.41977 4.95168C9.65501 4.71396 9.9701 4.58097 10.2981 4.58097C10.6261 4.58097 10.9412 4.71396 11.1765 4.95168C11.4117 5.1894 11.5486 5.51314 11.558 5.85413V11.8764C11.5577 12.2238 11.4248 12.557 11.1885 12.8026C10.9521 13.0482 10.6317 13.1861 10.2976 13.1861L10.2965 13.1872ZM10.4997 2.37663C5.9278 2.37663 2.20801 6.24413 2.20801 11C2.20801 15.7547 5.9278 19.6233 10.4997 19.6233C15.0715 19.6233 18.7913 15.7547 18.7913 11C18.7913 6.24521 15.0715 2.37663 10.4997 2.37663ZM10.4997 21.8333C4.75592 21.8333 0.0830078 16.9735 0.0830078 11C0.0830078 5.02646 4.75592 0.166626 10.4997 0.166626C16.2434 0.166626 20.9163 5.02646 20.9163 11C20.9163 16.9735 16.2434 21.8333 10.4997 21.8333Z" fill="#999999"/>
</svg>
