<svg width="46" height="41" viewBox="0 0 46 41" fill="none" xmlns="http://www.w3.org/2000/svg">
<path d="M27.4719 6.85451H45.4536V14.6605C45.4536 15.6957 45.0326 16.6884 44.2832 17.4204C43.5338 18.1523 42.5175 18.5635 41.4577 18.5635H31.4679C30.4081 18.5635 29.3917 18.1523 28.6423 17.4204C27.8929 16.6884 27.4719 15.6957 27.4719 14.6605V6.85451Z" stroke="#7C7C7C"/>
<path d="M33.4658 8.80601V2.9515C33.4658 2.43393 33.6763 1.93756 34.051 1.57158C34.4257 1.2056 34.9339 1 35.4638 1H37.4618C37.9916 1 38.4998 1.2056 38.8745 1.57158C39.2492 1.93756 39.4597 2.43393 39.4597 2.9515V8.80601" stroke="#7C7C7C"/>
<path d="M3.66227 25.1752L5.77612 19.4671H21.2723L23.3862 25.1752H3.66227V25.1752ZM21.7279 32.7119C21.4326 32.7122 21.1402 32.6555 20.8674 32.5453C20.5946 32.4351 20.3467 32.2734 20.1379 32.0694C19.9291 31.8655 19.7636 31.6234 19.6507 31.3569C19.5379 31.0904 19.4799 30.8048 19.4802 30.5165C19.4802 29.3007 20.4851 28.321 21.7279 28.321C22.9726 28.321 23.9756 29.3007 23.9756 30.5165C23.9756 31.7322 22.9726 32.7119 21.7279 32.7119ZM5.24466 32.7119C4.94941 32.7122 4.65701 32.6555 4.38419 32.5453C4.11136 32.4351 3.86347 32.2734 3.6547 32.0694C3.44593 31.8655 3.28038 31.6234 3.16751 31.3569C3.05465 31.0904 2.99669 30.8048 2.99695 30.5165C2.99695 29.3007 4.00193 28.321 5.24466 28.321C6.48939 28.321 7.49237 29.3007 7.49237 30.5165C7.49237 31.7322 6.48939 32.7119 5.24466 32.7119ZM23.8557 18.0913C23.7043 17.6581 23.4174 17.2824 23.0357 17.017C22.6539 16.7516 22.1965 16.6099 21.7279 16.612H5.24466C4.25766 16.612 3.4325 17.2267 3.11683 18.0913L0 26.8574V38.5664C0 39.3724 0.675312 40.03 1.49847 40.03H2.99695C3.82211 40.03 4.49542 39.3724 4.49542 38.5664V37.1028H22.4771V38.5664C22.4771 39.3724 23.1524 40.03 23.9756 40.03H25.4741C26.2992 40.03 26.9725 39.3724 26.9725 38.5664V26.8574L23.8557 18.0913Z" fill="#7C7C7C"/>
</svg>
