<svg width="20" height="19" viewBox="0 0 20 19" fill="none" xmlns="http://www.w3.org/2000/svg">
<path d="M3.52941 2.35294C3.52941 1.7289 3.77731 1.13042 4.21857 0.68916C4.65983 0.247898 5.25831 0 5.88235 0H14.1176C14.7417 0 15.3402 0.247898 15.7814 0.68916C16.2227 1.13042 16.4706 1.7289 16.4706 2.35294V10.5882H20V12.9412C20 13.8772 19.6282 14.775 18.9663 15.4368C18.3044 16.0987 17.4066 16.4706 16.4706 16.4706H11.7647V13.5294C11.7647 12.7494 11.4548 12.0013 10.9033 11.4497C10.3517 10.8981 9.60358 10.5882 8.82353 10.5882H3.52941V2.35294ZM16.4706 15.2941C17.0946 15.2941 17.6931 15.0462 18.1344 14.605C18.5756 14.1637 18.8235 13.5652 18.8235 12.9412V11.7647H16.4706V15.2941ZM7.64706 3.52941C7.49105 3.52941 7.34143 3.59139 7.23111 3.7017C7.1208 3.81202 7.05882 3.96164 7.05882 4.11765C7.05882 4.27366 7.1208 4.42328 7.23111 4.53359C7.34143 4.64391 7.49105 4.70588 7.64706 4.70588H12.3529C12.509 4.70588 12.6586 4.64391 12.7689 4.53359C12.8792 4.42328 12.9412 4.27366 12.9412 4.11765C12.9412 3.96164 12.8792 3.81202 12.7689 3.7017C12.6586 3.59139 12.509 3.52941 12.3529 3.52941H7.64706ZM7.64706 5.88235C7.49105 5.88235 7.34143 5.94433 7.23111 6.05464C7.1208 6.16496 7.05882 6.31458 7.05882 6.47059C7.05882 6.6266 7.1208 6.77622 7.23111 6.88653C7.34143 6.99685 7.49105 7.05882 7.64706 7.05882H12.3529C12.509 7.05882 12.6586 6.99685 12.7689 6.88653C12.8792 6.77622 12.9412 6.6266 12.9412 6.47059C12.9412 6.31458 12.8792 6.16496 12.7689 6.05464C12.6586 5.94433 12.509 5.88235 12.3529 5.88235H7.64706ZM8.82353 11.7647C9.29156 11.7647 9.74042 11.9506 10.0714 12.2816C10.4023 12.6125 10.5882 13.0614 10.5882 13.5294V17.0588C10.5882 17.5269 10.4023 17.9757 10.0714 18.3067C9.74042 18.6376 9.29156 18.8235 8.82353 18.8235H1.76471C1.29668 18.8235 0.847817 18.6376 0.51687 18.3067C0.185924 17.9757 0 17.5269 0 17.0588V13.5294C0 13.0614 0.185924 12.6125 0.51687 12.2816C0.847817 11.9506 1.29668 11.7647 1.76471 11.7647H8.82353ZM9.41177 17.0588V15.8824C8.94374 15.8824 8.49488 16.0683 8.16393 16.3992C7.83298 16.7302 7.64706 17.179 7.64706 17.6471H8.82353C8.82353 17.4911 8.8855 17.3414 8.99582 17.2311C9.10614 17.1208 9.25576 17.0588 9.41177 17.0588ZM9.41177 13.5294C9.25576 13.5294 9.10614 13.4674 8.99582 13.3571C8.8855 13.2468 8.82353 13.0972 8.82353 12.9412H7.64706C7.64706 13.4092 7.83298 13.8581 8.16393 14.189C8.49488 14.52 8.94374 14.7059 9.41177 14.7059V13.5294ZM1.76471 12.9412C1.76471 13.0972 1.70273 13.2468 1.59242 13.3571C1.4821 13.4674 1.33248 13.5294 1.17647 13.5294V14.7059C1.6445 14.7059 2.09336 14.52 2.42431 14.189C2.75525 13.8581 2.94118 13.4092 2.94118 12.9412H1.76471ZM1.17647 17.0588C1.33248 17.0588 1.4821 17.1208 1.59242 17.2311C1.70273 17.3414 1.76471 17.4911 1.76471 17.6471H2.94118C2.94118 17.179 2.75525 16.7302 2.42431 16.3992C2.09336 16.0683 1.6445 15.8824 1.17647 15.8824V17.0588ZM5.29412 13.5294C4.82609 13.5294 4.37723 13.7153 4.04628 14.0463C3.71534 14.3772 3.52941 14.8261 3.52941 15.2941C3.52941 15.7621 3.71534 16.211 4.04628 16.542C4.37723 16.8729 4.82609 17.0588 5.29412 17.0588C5.76215 17.0588 6.21101 16.8729 6.54195 16.542C6.8729 16.211 7.05882 15.7621 7.05882 15.2941C7.05882 14.8261 6.8729 14.3772 6.54195 14.0463C6.21101 13.7153 5.76215 13.5294 5.29412 13.5294Z" fill="white"/>
</svg>
