<svg width="29" height="25" viewBox="0 0 21 13" fill="none" xmlns="http://www.w3.org/2000/svg">
<path d="M7.93302 7.69792H13.0393C13.378 7.69792 13.7028 7.56337 13.9423 7.32387C14.1818 7.08437 14.3163 6.75954 14.3163 6.42083C14.3163 6.08213 14.1818 5.7573 13.9423 5.5178C13.7028 5.2783 13.378 5.14375 13.0393 5.14375H7.93302C7.76538 5.14375 7.59938 5.17677 7.4445 5.24092C7.28962 5.30508 7.14889 5.39911 7.03035 5.51765C6.91181 5.63619 6.81778 5.77691 6.75363 5.93179C6.68947 6.08667 6.65646 6.25267 6.65646 6.42031C6.65646 6.58795 6.68947 6.75395 6.75363 6.90883C6.81778 7.06371 6.91181 7.20444 7.03035 7.32298C7.14889 7.44152 7.28962 7.53555 7.4445 7.5997C7.59938 7.66386 7.76538 7.69688 7.93302 7.69688V7.69792ZM14.4861 0.25H13.4174C13.0859 0.25 12.7679 0.381696 12.5335 0.616117C12.2991 0.850537 12.1674 1.16848 12.1674 1.5C12.1674 1.83152 12.2991 2.14946 12.5335 2.38388C12.7679 2.6183 13.0859 2.75 13.4174 2.75H14.5476C16.6341 2.75 18.4122 4.40312 18.4163 6.48958C18.4216 8.61979 16.7955 10.25 14.6663 10.25H13.4164C13.0848 10.25 12.7669 10.3817 12.5325 10.6161C12.298 10.8505 12.1664 11.1685 12.1664 11.5C12.1664 11.8315 12.298 12.1495 12.5325 12.3839C12.7669 12.6183 13.0848 12.75 13.4164 12.75H14.6663C18.1705 12.75 20.9226 9.99375 20.9163 6.4875C20.9101 3.01146 17.9622 0.25 14.4861 0.25ZM2.58302 6.48958C2.58823 4.40417 4.36427 2.75 6.45177 2.75H7.58198C7.9135 2.75 8.23144 2.6183 8.46586 2.38388C8.70028 2.14946 8.83198 1.83152 8.83198 1.5C8.83198 1.16848 8.70028 0.850537 8.46586 0.616117C8.23144 0.381696 7.9135 0.25 7.58198 0.25H6.51323C3.03718 0.25 0.0892684 3.01042 0.0830184 6.4875C0.0767684 9.99375 2.82885 12.75 6.33302 12.75H7.58302C7.91454 12.75 8.23248 12.6183 8.4669 12.3839C8.70132 12.1495 8.83302 11.8315 8.83302 11.5C8.83302 11.1685 8.70132 10.8505 8.4669 10.6161C8.23248 10.3817 7.91454 10.25 7.58302 10.25H6.33302C4.20385 10.25 2.57781 8.61979 2.58302 6.48958Z" fill="#999999"/>
</svg>
