<svg width="45" height="45" viewBox="0 0 117 149" fill="none" xmlns="http://www.w3.org/2000/svg">
<path d="M58.5 0.0909424C42.9905 0.109239 28.1214 6.27849 17.1545 17.2454C6.1876 28.2123 0.0183593 43.0814 6.2238e-05 58.591C-0.0185136 71.2654 4.12155 83.5959 11.7851 93.691C11.7851 93.691 13.3806 95.7916 13.6412 96.0948L58.5 149L103.38 96.0682C103.614 95.7863 105.215 93.691 105.215 93.691L105.22 93.675C112.88 83.5843 117.018 71.2596 117 58.591C116.982 43.0814 110.812 28.2123 99.8455 17.2454C88.8786 6.27849 74.0095 0.109239 58.5 0.0909424ZM58.5 79.8637C54.2927 79.8637 50.1798 78.6161 46.6815 76.2786C43.1832 73.9411 40.4567 70.6188 38.8466 66.7317C37.2365 62.8446 36.8152 58.5674 37.636 54.4408C38.4569 50.3143 40.4829 46.5239 43.4579 43.5489C46.433 40.5738 50.2234 38.5478 54.3499 37.727C58.4764 36.9062 62.7536 37.3274 66.6407 38.9375C70.5278 40.5476 73.8501 43.2742 76.1876 46.7725C78.5251 50.2707 79.7727 54.3836 79.7727 58.591C79.7657 64.2307 77.5222 69.6374 73.5343 73.6253C69.5464 77.6132 64.1397 79.8566 58.5 79.8637Z" fill="#106D38"/>
<path d="M58.5 0.0909424C42.9905 0.109239 28.1214 6.27849 17.1545 17.2454C6.1876 28.2123 0.0183593 43.0814 6.2238e-05 58.591C-0.0185136 71.2654 4.12155 83.5959 11.7851 93.691C11.7851 93.691 13.3806 95.7916 13.6412 96.0948L58.5 149L103.38 96.0682C103.614 95.7863 105.215 93.691 105.215 93.691L105.22 93.675C112.88 83.5843 117.018 71.2596 117 58.591C116.982 43.0814 110.812 28.2123 99.8455 17.2454C88.8786 6.27849 74.0095 0.109239 58.5 0.0909424ZM58.5 79.8637C54.2927 79.8637 50.1798 78.6161 46.6815 76.2786C43.1832 73.9411 40.4567 70.6188 38.8466 66.7317C37.2365 62.8446 36.8152 58.5674 37.636 54.4408C38.4569 50.3143 40.4829 46.5239 43.4579 43.5489C46.433 40.5738 50.2234 38.5478 54.3499 37.727C58.4764 36.9062 62.7536 37.3274 66.6407 38.9375C70.5278 40.5476 73.8501 43.2742 76.1876 46.7725C78.5251 50.2707 79.7727 54.3836 79.7727 58.591C79.7657 64.2307 77.5222 69.6374 73.5343 73.6253C69.5464 77.6132 64.1397 79.8566 58.5 79.8637Z" stroke="white"/>
<circle cx="58.1636" cy="59.1636" r="36.1636" fill="white"/>
<path d="M81.5302 70.4054C81.3236 70.2801 76.402 67.3236 70.2498 67.3236C69.6163 67.3236 68.9876 67.3487 68.3659 67.3868C69.8095 66.6025 71.2641 65.6941 72.6098 64.6426C79.108 59.5659 81.839 51.3183 81.9518 50.9701C82.056 50.6476 81.9871 50.2936 81.7682 50.0343C81.5483 49.7769 81.2155 49.6573 80.876 49.6984C80.5949 49.7405 73.932 50.7882 67.8333 56.3347C66.1852 57.834 64.6932 59.4989 63.3821 61.1346C63.9635 58.8653 64.3747 56.3197 64.3747 53.607C64.3747 44.2237 59.5249 36.7272 59.3183 36.4134C58.9568 35.8622 58.0427 35.8622 57.6813 36.4134C57.4747 36.7272 52.6248 44.2237 52.6248 53.607C52.6248 56.3198 53.0361 58.8653 53.6175 61.1347C52.3064 59.499 50.8144 57.834 49.1662 56.3348C43.0674 50.7882 36.4046 49.7405 36.1235 49.6985C35.7898 49.6574 35.4523 49.777 35.2313 50.0344C35.0124 50.2937 34.9435 50.6477 35.0477 50.9701C35.1606 51.3184 37.8915 59.566 44.3899 64.6427C45.7357 65.6943 47.1902 66.6026 48.6339 67.387C48.0121 67.3488 47.3834 67.3238 46.7499 67.3238C40.5977 67.3238 35.6761 70.2802 35.4695 70.4056C35.1769 70.5845 34.9991 70.9032 35 71.2457C35.0009 71.5892 35.1817 71.9068 35.4752 72.0828C35.6846 72.2081 40.6732 75.1618 46.7499 75.1618C48.1054 75.1618 49.4412 74.967 50.7103 74.6712C48.6331 77.1192 48.7027 79.9617 48.7092 80.1027C48.7226 80.4041 48.8737 80.6835 49.1195 80.8586C49.2868 80.9782 49.4857 81.0403 49.6875 81.0403C49.7812 81.0403 49.875 81.0269 49.9668 81.0001C50.114 80.9562 53.6176 79.8874 56.3026 76.7825C56.784 76.2261 57.172 75.6745 57.5209 75.1331V82.0201C57.5209 82.5616 57.9588 82.9998 58.5 82.9998C59.0413 82.9998 59.4792 82.5616 59.4792 82.0201V75.1331C59.828 75.6745 60.2161 76.2261 60.6975 76.7825C63.3825 79.8874 66.8861 80.9561 67.0333 81.0001C67.1251 81.0269 67.2189 81.0403 67.3126 81.0403C67.5144 81.0403 67.7133 80.9782 67.8806 80.8586C68.1264 80.6835 68.2775 80.4041 68.2909 80.1027C68.2973 79.9616 68.3677 77.1118 66.2825 74.6619C67.5585 74.963 68.8984 75.1618 70.2501 75.1618C76.4024 75.1618 81.3239 72.2053 81.5305 72.0799C81.8221 71.9019 82 71.5843 82 71.2427C81.9996 70.9011 81.8218 70.5833 81.5302 70.4054Z" fill="#106D38"/>
</svg>
