<svg width="18" height="16" viewBox="0 0 18 16" fill="none" xmlns="http://www.w3.org/2000/svg">
<path d="M16.6696 15.3571H1.33444C0.886074 15.3571 0.693801 15.0388 0.913074 14.6469L8.60398 0.930898C8.82489 0.537353 9.17998 0.538989 9.40007 0.930898L17.091 14.6469C17.3119 15.0404 17.1221 15.3571 16.6696 15.3571ZM8.99998 12.9091C9.21698 12.9091 9.42509 12.8229 9.57852 12.6694C9.73196 12.516 9.81816 12.3079 9.81816 12.0909C9.81816 11.8739 9.73196 11.6658 9.57852 11.5124C9.42509 11.3589 9.21698 11.2727 8.99998 11.2727C8.78299 11.2727 8.57488 11.3589 8.42144 11.5124C8.268 11.6658 8.1818 11.8739 8.1818 12.0909C8.1818 12.3079 8.268 12.516 8.42144 12.6694C8.57488 12.8229 8.78299 12.9091 8.99998 12.9091ZM8.1818 6.36363V8.81817C8.1818 9.03517 8.268 9.24327 8.42144 9.39671C8.57488 9.55015 8.78299 9.63635 8.99998 9.63635C9.21698 9.63635 9.42509 9.55015 9.57852 9.39671C9.73196 9.24327 9.81816 9.03517 9.81816 8.81817V6.36363C9.81816 6.14663 9.73196 5.93852 9.57852 5.78508C9.42509 5.63165 9.21698 5.54544 8.99998 5.54544C8.78299 5.54544 8.57488 5.63165 8.42144 5.78508C8.268 5.93852 8.1818 6.14663 8.1818 6.36363Z" fill="#999999"/>
</svg>
