<svg width="24" height="24" viewBox="0 0 24 24" fill="none" xmlns="http://www.w3.org/2000/svg">
<path d="M15.4018 10.2054C15.4018 10.7054 15.2254 11.1295 14.8728 11.4777C14.5201 11.8259 14.0938 12 13.5938 12H10.2054V8.39732H13.5938C14.0938 8.39732 14.5201 8.57366 14.8728 8.92634C15.2254 9.27902 15.4018 9.70536 15.4018 10.2054ZM17.7991 10.2054C17.7991 9.04464 17.3906 8.05357 16.5737 7.23214C15.7567 6.41071 14.7634 6 13.5938 6H7.79464V18H10.2054V14.3973H13.5938C14.7545 14.3973 15.7455 13.9888 16.567 13.1719C17.3884 12.3549 17.7991 11.3661 17.7991 10.2054ZM24 12C24 13.625 23.683 15.1786 23.0491 16.6607C22.4152 18.1429 21.5625 19.4196 20.4911 20.4911C19.4196 21.5625 18.1429 22.4152 16.6607 23.0491C15.1786 23.683 13.625 24 12 24C10.375 24 8.82143 23.683 7.33929 23.0491C5.85714 22.4152 4.58036 21.5625 3.50893 20.4911C2.4375 19.4196 1.58482 18.1429 0.950893 16.6607C0.316964 15.1786 0 13.625 0 12C0 10.375 0.316964 8.82143 0.950893 7.33929C1.58482 5.85714 2.4375 4.58036 3.50893 3.50893C4.58036 2.4375 5.85714 1.58482 7.33929 0.950893C8.82143 0.316964 10.375 0 12 0C13.625 0 15.1786 0.316964 16.6607 0.950893C18.1429 1.58482 19.4196 2.4375 20.4911 3.50893C21.5625 4.58036 22.4152 5.85714 23.0491 7.33929C23.683 8.82143 24 10.375 24 12Z" fill="#FBFBFB"/>
</svg>
