<svg width="15" height="15" viewBox="0 0 15 15" fill="none" xmlns="http://www.w3.org/2000/svg">
<path d="M14.2208 5.77398C14.2358 6.31297 13.9064 6.56749 13.5621 6.79207C12.4242 7.54067 11.1216 7.57061 9.83404 7.6305C9.26511 7.66044 8.6812 7.60056 8.11227 7.78022C7.5583 7.95988 7.15406 8.31921 6.85462 8.79831C6.57016 9.2325 6.33061 9.32233 6.03117 8.79831C4.98313 6.97173 3.93509 5.16013 2.87209 3.3635C2.61756 2.94428 2.75231 2.64484 3.03678 2.33043C3.72549 1.59681 4.57889 1.19256 5.58201 1.1177C6.31563 1.07279 7.06423 1.0129 7.79786 0.997927C8.62131 0.982955 9.36991 0.758376 10.0287 0.24933C10.4928 -0.124969 10.942 -0.0800528 11.2264 0.39905C12.2146 2.06094 13.1578 3.75277 14.116 5.42962C14.1759 5.5494 14.1909 5.68415 14.2208 5.77398Z" fill="#686868"/>
<path d="M0.670616 2.64485C1.13475 2.73468 1.32938 3.10898 1.53899 3.4683C3.21585 6.37286 4.90768 9.27742 6.58454 12.197C6.88397 12.721 7.19839 13.245 7.48285 13.784C7.69246 14.1882 7.75235 14.6074 7.30319 14.8769C6.83906 15.1464 6.44979 14.9518 6.19526 14.5026C4.17405 10.9543 2.13787 7.4209 0.131626 3.88752C-0.197757 3.30361 0.131626 2.6149 0.670616 2.64485Z" fill="#686868"/>
</svg>
