<svg width="33" height="36" viewBox="0 0 33 36" fill="none" xmlns="http://www.w3.org/2000/svg">
<path d="M13.5217 29.4941C13.8647 29.8266 14.3092 30.0086 14.773 30.0086C15.2367 30.0086 15.6812 29.8248 16.0242 29.4941L22.3452 23.3761C23.166 22.5816 23.166 21.1886 22.3452 20.3941C22.0113 20.0658 21.5622 19.8812 21.094 19.8796C20.6302 19.8796 20.184 20.0633 19.8427 20.3941L15.1667 24.9213C15.1166 24.9757 15.0557 25.0192 14.9879 25.0489C14.9202 25.0786 14.847 25.0939 14.773 25.0939C14.699 25.0939 14.6258 25.0786 14.558 25.0489C14.4903 25.0192 14.4294 24.9757 14.3792 24.9213L13.1507 23.7313C12.8165 23.4037 12.3675 23.2197 11.8995 23.2186C11.434 23.2186 10.9895 23.4006 10.6482 23.7313L10.4872 23.8888V23.9098C10.167 24.3161 10.0065 24.8256 10.0362 25.3421C10.0658 25.8586 10.2836 26.3464 10.6482 26.7133L13.5217 29.4958V29.4941ZM5.52773 31.4943H27.5777V18.5041H5.52773V31.4943ZM9.98324 13.8701V10.9353C9.98324 7.61032 12.841 4.90482 16.3532 4.90482C19.8637 4.90482 22.7215 7.61032 22.7215 10.9353V13.8753C22.7215 14.1063 22.7635 14.3286 22.8387 14.5368H9.86774C9.94124 14.3286 9.98324 14.1063 9.98324 13.8753V13.8701ZM29.9052 14.5333H26.96C27.0335 14.3251 27.0755 14.1028 27.0755 13.8718V10.9318C27.0755 5.33182 22.2647 0.77832 16.3532 0.77832C10.44 0.77832 5.62923 5.33357 5.62923 10.9318V13.8718C5.62923 14.1028 5.67123 14.3251 5.74648 14.5333H3.08998C1.82648 14.5351 0.802734 15.5046 0.802734 16.6998V33.3161C0.802734 34.5113 1.82648 35.4808 3.08998 35.4808H29.9052C31.1652 35.4808 32.1907 34.5113 32.1907 33.3161V16.6998C32.1907 15.5046 31.167 14.5351 29.9052 14.5351V14.5333Z" fill="#7C7C7C"/>
</svg>
