<svg width="11" height="12" viewBox="0 0 11 12" fill="none" xmlns="http://www.w3.org/2000/svg">
<path d="M10.6411 6.31671C10.8721 5.99345 11 5.59738 11 5.1853C11 4.5315 10.6549 3.91264 10.0994 3.56754C9.95637 3.4787 9.79354 3.43195 9.62775 3.43212H6.3305L6.413 1.64253C6.43225 1.21006 6.28788 0.799428 6.00738 0.486359C5.86972 0.33205 5.70364 0.209276 5.51941 0.125624C5.33518 0.0419728 5.1367 -0.000779051 4.93625 1.07465e-05C4.22125 1.07465e-05 3.58875 0.509657 3.399 1.23918L2.21787 5.76775H2.21375V12H8.70788C8.83437 12 8.95813 11.9738 9.07225 11.9214C9.72675 11.6258 10.1489 10.9487 10.1489 10.1973C10.1489 10.0138 10.1241 9.83327 10.0746 9.65854C10.3056 9.33528 10.4335 8.93921 10.4335 8.52712C10.4335 8.34365 10.4088 8.16309 10.3593 7.98835C10.5903 7.66509 10.7181 7.26903 10.7181 6.85694C10.7154 6.67347 10.6906 6.49145 10.6411 6.31671ZM0 6.23372V11.534C0 11.7918 0.196625 12 0.44 12H1.33375V5.76775H0.44C0.196625 5.76775 0 5.97598 0 6.23372Z" fill="#106D38"/>
</svg>
