<svg width="28" height="23" viewBox="0 0 24 19" fill="none" xmlns="http://www.w3.org/2000/svg">
<path d="M24 2.71427L21.1428 3.42856C22.3333 2.83332 22.9285 1.99998 23.2857 0.928556C22.3333 1.40475 21.3809 1.76189 20.1904 1.99998C19.7229 1.53237 19.1653 1.16462 18.5514 0.919048C17.9374 0.673477 17.28 0.555206 16.619 0.571413C15.4285 0.571413 14.238 1.0476 13.1666 1.88094C12.5836 2.40988 12.1624 3.09317 11.9517 3.85165C11.741 4.61014 11.7495 5.41279 11.9761 6.16665C10.0585 6.08101 8.17679 5.61607 6.43991 4.79872C4.70302 3.98136 3.1454 2.8278 1.8571 1.40475C1.44559 2.06563 1.22747 2.82859 1.22747 3.60713C1.22747 4.38566 1.44559 5.14862 1.8571 5.80951C2.21424 6.52379 2.69043 6.99998 3.40472 7.47617C2.57138 7.47617 1.8571 7.23808 1.14281 6.88094C1.14281 8.07141 1.49995 8.90475 2.33329 9.73808C3.04757 10.5714 3.99995 11.1667 5.07138 11.2857C4.33395 11.4826 3.5635 11.5231 2.80948 11.4047C3.18023 12.3051 3.80581 13.0777 4.60944 13.6275C5.41306 14.1774 6.35975 14.4806 7.33329 14.5C5.27776 16.013 2.7264 16.6934 0.19043 16.4047C2.05698 17.4557 4.12275 18.1045 6.25499 18.3095C8.38723 18.5145 10.5388 18.2712 12.5714 17.5952C15.2742 16.7542 17.6199 15.0368 19.238 12.7143C20.86 10.4664 21.6968 7.74704 21.619 4.97617C22.4523 4.38094 23.2857 3.5476 24 2.59522V2.71427Z" fill="#999999"/>
</svg>
