<svg width="20" height="19" viewBox="0 0 18 19" fill="none" xmlns="http://www.w3.org/2000/svg">
<path d="M15.1662 10.0149V15.9395H2.83388V3.60714H11.5307L14.3248 0.813297H1.49408V0.815257C1.48764 0.815257 1.48176 0.813297 1.47504 0.813297C1.10087 0.813563 0.741647 0.960162 0.474131 1.22177C0.206615 1.48337 0.0520255 1.83923 0.0433988 2.2133H0.0400391V17.3333H0.0436792C0.0524937 17.7009 0.202439 18.0509 0.462421 18.3109C0.722403 18.5709 1.07247 18.7208 1.44004 18.7297V18.7333H16.56V18.7297C16.9276 18.7209 17.2777 18.571 17.5377 18.311C17.7977 18.051 17.9477 17.7009 17.9564 17.3333H17.96V7.2211L15.1662 10.0149Z" fill="#097D28"/>
<path d="M14.3248 0.813297L11.5307 3.60714H15.1662H17.96V3.60714C17.96 2.06414 16.7092 0.813297 15.1662 0.813297H14.3248Z" fill="#097D28"/>
<path d="M15.1662 10.0149L17.96 7.2211V3.60714H15.1662V10.0149Z" fill="#097D28"/>
</svg>
