<svg width="42" height="41" viewBox="0 0 42 41" fill="none" xmlns="http://www.w3.org/2000/svg">
<path d="M20.7629 39.225L15.1974 40.563L11.0664 36.693L5.55929 35.133L3.96214 29.757L0 25.716L1.36371 20.28L0 14.844L3.96214 10.809L5.55929 5.43L11.0664 3.87L15.1974 0L20.7629 1.332L26.3283 0L30.4594 3.87L35.9664 5.43L37.5636 10.809L41.5257 14.844L40.162 20.28L41.5319 25.716L37.5697 29.751L35.9726 35.13L30.4655 36.69L26.3314 40.56" fill="#7C7C7C"/>
<path d="M17.5532 29.2801H17.5471L8.47714 20.7691L12.1629 17.3101L17.5501 22.3651L29.3629 11.2801L33.0486 14.7391L17.5532 29.2801Z" fill="white"/>
</svg>
